<?xml version="1.0" encoding="UTF-8" standalone="no"?>
<!-- Generator: Adobe Illustrator 16.0.0, SVG Export Plug-In . SVG Version: 6.00 Build 0)  -->

<svg
   version="1.1"
   id="logo-01"
   x="0px"
   y="0px"
   width="167.09833"
   height="38.870216"
   viewBox="0 0 167.09833 38.870217"
   enable-background="new 0 0 172.75 48"
   xml:space="preserve"
   sodipodi:docname="logo.svg"
   inkscape:version="1.2.2 (732a01da63, 2022-12-09)"
   xmlns:inkscape="http://www.inkscape.org/namespaces/inkscape"
   xmlns:sodipodi="http://sodipodi.sourceforge.net/DTD/sodipodi-0.dtd"
   xmlns:xlink="http://www.w3.org/1999/xlink"
   xmlns="http://www.w3.org/2000/svg"
   xmlns:svg="http://www.w3.org/2000/svg"><defs
   id="defs15" /><sodipodi:namedview
   id="namedview13"
   pagecolor="#ffffff"
   bordercolor="#000000"
   borderopacity="0.25"
   inkscape:showpageshadow="2"
   inkscape:pageopacity="0.0"
   inkscape:pagecheckerboard="0"
   inkscape:deskcolor="#d1d1d1"
   showgrid="false"
   inkscape:zoom="2.4865144"
   inkscape:cx="97.928248"
   inkscape:cy="-10.858574"
   inkscape:window-width="1366"
   inkscape:window-height="745"
   inkscape:window-x="-8"
   inkscape:window-y="-8"
   inkscape:window-maximized="1"
   inkscape:current-layer="logo-01" />
<path
   display="none"
   d="M 17.589849,7.0980677 V 19.930067 c 0.013,1.102 -0.867,2.007 -1.968,2.024 H 5.4098494 c -1.606,-0.01 -3.08,-0.894 -3.844,-2.307 -2.954,-5.396 -7.278,-9.9169993 -12.5370004,-13.1069993 -1.602,-0.971 -2.579,-2.708 -2.577,-4.58 v -10.059 c -0.013,-1.101 0.867,-2.0050007 1.968,-2.0230007 H 0.87484937 c 1.10300003,0.018 1.98400003,0.9250007 1.96800003,2.0280007 v 13.164 H 15.620849 c 1.103,0.017 1.985,0.925 1.969,2.028 z"
   id="path2" />
<path
   display="none"
   d="m -14.612151,24.629067 v 10.573 c -0.002,1.476 1.192,2.674 2.668,2.676 10e-4,0 0.002,0 0.003,0 h 11.41100037 c 1.475,0 2.67100003,-1.197 2.67100003,-2.672 v -6.485 c 0,-4.38 -4.608,-10.44 -6.849,-12.979 C -10.225151,9.4870677 -15.745151,6.0340677 -26.595151,6.0340677 h -4.163 c 3.633,6.8709993 12.888,10.6529993 18.875,10.8779993 -6.742,0.084 -15.761,-3.417 -19.529,-10.3499993 0.235,9.7379993 6.958,15.5309993 16.8,16.2299993 5.8850004,0.418 11.6120004,0.249 13.61600037,3.218 1.013,1.5 0.915,2.849 0.915,4.688 v 4.5 c -0.001,0.246 -0.2,0.445 -0.446,0.445 H -11.941151 c -0.246,0 -0.445,-0.199 -0.445,-0.445 v -7.469 c 0,-2.851 -2.226,-3.1 -2.226,-3.1 z"
   id="path4" />

<image
   display="none"
   overflow="visible"
   width="243.5312"
   height="17.481199"
   xlink:href="73A4CA4D.jpg"
   id="image8"
   x="19.568947"
   y="-1.9740326">
</image>

<g
   id="g897"
   transform="scale(1.2134301)"
   style="stroke-width:0.82411"><g
     id="g1602"
     inkscape:export-filename="Logo1.png"
     inkscape:export-xdpi="146.25153"
     inkscape:export-ydpi="146.25153"
     transform="translate(-31.425151,-10.121933)"
     style="stroke-width:0.82411"><text
       xml:space="preserve"
       style="font-style:normal;font-variant:normal;font-weight:bold;font-stretch:normal;font-size:11.7827px;font-family:Georgia;-inkscape-font-specification:'Georgia, Bold';font-variant-ligatures:normal;font-variant-caps:normal;font-variant-numeric:normal;font-variant-east-asian:normal;opacity:1;fill:#ff3bd4;fill-opacity:1;stroke-width:3.13271"
       x="59.975754"
       y="29.961004"
       id="text421"><tspan
         sodipodi:role="line"
         id="tspan419"
         x="59.975754"
         y="29.961004"
         style="fill:#ff3bd4;fill-opacity:1;stroke-width:3.13271"><tspan
           style="fill:#f401b4;fill-opacity:1;stroke-width:3.13271"
           id="tspan1924">Her</tspan><tspan
           style="fill:#000000;stroke-width:3.13271"
           id="tspan1562">UniqueHealth</tspan></tspan></text></g><g
     id="g2548"
     transform="matrix(0.72640557,0,0,0.72640557,-30.49115,-11.863731)"
     inkscape:export-filename="logo_white.png"
     inkscape:export-xdpi="2113.8796"
     inkscape:export-ydpi="2113.8796"
     style="stroke-width:1.1345"><g
       id="g502"
       transform="translate(27.628024,12.852238)"
       style="fill:#f401b4;fill-opacity:1;stroke-width:1.1345"><path
         style="fill:#f401b4;fill-opacity:1;stroke-width:1.1345"
         d="m 30.831539,3.4798651 c -2.461842,2.4218903 -2.686654,5.6977926 -0.359623,7.8574109 -0.06696,-2.4777016 0.06409,-3.6028283 0.398909,-4.8584205 0.301984,1.494465 0.394663,1.6812508 0.318084,4.8884395 2.343771,-2.0759127 2.219577,-5.4055635 -0.35737,-7.8874299 z"
         id="path307"
         sodipodi:nodetypes="ccccc" /><path
         style="fill:#f401b4;fill-opacity:1;stroke-width:0.704434"
         d="m 38.790437,8.5347163 c -2.072956,0.5485005 -3.202315,2.2459807 -2.611964,4.1267577 0.726372,-1.356808 1.143289,-1.923248 1.710248,-2.497341 -0.297048,0.898883 -0.304547,1.028135 -1.332819,2.734176 1.902811,-0.398253 2.860494,-2.232122 2.234535,-4.3635927 z"
         id="path459"
         sodipodi:nodetypes="ccccc" /><path
         style="fill:#f401b4;fill-opacity:1;stroke-width:1.1345"
         d="m 47.249183,12.988567 c -3.303006,-1.008149 -6.289306,0.357166 -7.0771,3.432618 2.145596,-1.240929 3.196942,-1.66254 4.460164,-1.96731 -1.169345,0.978393 -1.289287,1.148958 -4.144478,2.611766 2.942612,1.069444 5.809643,-0.628241 6.761414,-4.077074 z"
         id="path461"
         sodipodi:nodetypes="ccccc" /><path
         style="fill:#f401b4;fill-opacity:1;stroke-width:0.704434"
         d="m 22.937444,8.4905377 c 2.072956,0.5485005 3.202315,2.2459803 2.611964,4.1267573 -0.726372,-1.356808 -1.143289,-1.923248 -1.710248,-2.497341 0.297048,0.898883 0.304547,1.028135 1.332819,2.734176 -1.902811,-0.398253 -2.860494,-2.232122 -2.234535,-4.3635923 z"
         id="path463"
         sodipodi:nodetypes="ccccc" /><path
         style="fill:#f401b4;fill-opacity:1;stroke-width:1.1345"
         d="m 14.536548,12.988567 c 3.303006,-1.008149 6.289306,0.357166 7.0771,3.432618 -2.145596,-1.240929 -3.196942,-1.66254 -4.460164,-1.96731 1.169345,0.978393 1.289287,1.148958 4.144478,2.611766 -2.942612,1.069444 -5.809643,-0.628241 -6.761414,-4.077074 z"
         id="path465"
         sodipodi:nodetypes="ccccc" /><path
         style="fill:#f401b4;fill-opacity:1;stroke-width:0.797929"
         d="m 22.697206,13.473 c 2.428437,0.04734 4.126788,1.612329 3.981818,3.840506 -1.163454,-1.298222 -1.774266,-1.809699 -2.552249,-2.289336 0.568108,0.909492 0.611046,1.049719 2.200449,2.651252 -2.200876,0.07235 -3.746901,-1.688805 -3.630018,-4.202422 z"
         id="path467"
         sodipodi:nodetypes="ccccc" /><path
         style="fill:#f401b4;fill-opacity:1;stroke-width:0.797929"
         d="m 38.613629,13.378859 c -2.428437,0.04734 -4.126788,1.612329 -3.981818,3.840506 1.163454,-1.298222 1.774266,-1.809699 2.552249,-2.289336 -0.568108,0.909492 -0.611046,1.049719 -2.200449,2.651252 2.200876,0.07235 3.746901,-1.688805 3.630018,-4.202422 z"
         id="path469"
         sodipodi:nodetypes="ccccc" /><path
         style="fill:#f401b4;fill-opacity:1;stroke-width:1.1345"
         d="m 47.249183,31.623357 c -3.303006,1.008149 -6.289306,-0.357166 -7.0771,-3.432618 2.145596,1.240929 3.196942,1.66254 4.460164,1.96731 -1.169345,-0.978393 -1.289287,-1.148958 -4.144478,-2.611766 2.942612,-1.069444 5.809643,0.628241 6.761414,4.077074 z"
         id="path471"
         sodipodi:nodetypes="ccccc" /><path
         style="fill:#f401b4;fill-opacity:1;stroke-width:1.1345"
         d="m 14.347356,31.717953 c 3.303006,1.008149 6.289306,-0.357166 7.0771,-3.432618 -2.145596,1.240929 -3.196942,1.66254 -4.460164,1.96731 1.169345,-0.978393 1.289287,-1.148958 4.144478,-2.611766 -2.942612,-1.069444 -5.809643,0.628241 -6.761414,4.077074 z"
         id="path473"
         sodipodi:nodetypes="ccccc" /><path
         style="fill:#f401b4;fill-opacity:1;stroke-width:0.704434"
         d="m 14.800978,22.147458 c 1.564965,-1.465907 3.603029,-1.522309 4.883842,-0.02386 -1.535465,-0.104373 -2.236813,-0.0516 -3.024271,0.124281 0.919506,0.225246 1.033037,0.287481 3.024713,0.321301 -1.347327,1.40143 -3.409887,1.239945 -4.884284,-0.421724 z"
         id="path475"
         sodipodi:nodetypes="ccccc" /><path
         style="fill:#f401b4;fill-opacity:1;stroke-width:0.704434"
         d="m 46.73974,22.242055 c -1.564965,-1.465907 -3.603029,-1.522309 -4.883842,-0.02386 1.535465,-0.104373 2.236813,-0.0516 3.024271,0.124281 -0.919506,0.225246 -1.033037,0.287481 -3.024713,0.321301 1.347327,1.40143 3.409887,1.239945 4.884284,-0.421724 z"
         id="path477"
         sodipodi:nodetypes="ccccc" /><path
         style="fill:#f401b4;fill-opacity:1;stroke-width:0.797929"
         d="m 21.845842,29.596677 c 2.428437,-0.04734 4.126788,-1.612329 3.981818,-3.840506 -1.163454,1.298222 -1.774266,1.809699 -2.552249,2.289336 0.568108,-0.909492 0.611046,-1.049719 2.200449,-2.651252 -2.200876,-0.07235 -3.746901,1.688805 -3.630018,4.202422 z"
         id="path479"
         sodipodi:nodetypes="ccccc" /><path
         style="fill:#f401b4;fill-opacity:1;stroke-width:0.797929"
         d="m 39.546504,29.407485 c -2.428437,-0.04734 -4.126788,-1.612329 -3.981818,-3.840506 1.163454,1.298222 1.774266,1.809699 2.552249,2.289336 -0.568108,-0.909492 -0.611046,-1.049719 -2.200449,-2.651252 2.200876,-0.07235 3.746901,1.688805 3.630018,4.202422 z"
         id="path481"
         sodipodi:nodetypes="ccccc" /><path
         style="fill:#f401b4;fill-opacity:1;stroke-width:0.704434"
         d="m 22.842848,36.219359 c 2.072956,-0.5485 3.202315,-2.24598 2.611964,-4.126757 -0.726372,1.356808 -1.143289,1.923248 -1.710248,2.497341 0.297048,-0.898883 0.304547,-1.028135 1.332819,-2.734176 -1.902811,0.398253 -2.860494,2.232122 -2.234535,4.363592 z"
         id="path483"
         sodipodi:nodetypes="ccccc" /><path
         style="fill:#f401b4;fill-opacity:1;stroke-width:0.704434"
         d="m 38.75821,36.030166 c -2.072956,-0.5485 -3.202315,-2.24598 -2.611964,-4.126757 0.726372,1.356808 1.143289,1.923248 1.710248,2.497341 -0.297048,-0.898883 -0.304547,-1.028135 -1.332819,-2.734176 1.902811,0.398253 2.860494,2.232122 2.234535,4.363592 z"
         id="path485"
         sodipodi:nodetypes="ccccc" /></g><g
       id="g2206"
       style="fill:#70e73b;fill-opacity:1;stroke-width:1.1345"
       transform="translate(27.873033,12.94661)"><ellipse
         style="fill:#70e73b;fill-opacity:1;stroke-width:1.1162"
         id="path580"
         cx="30.576929"
         cy="18.139856"
         rx="2.3883219"
         ry="2.6922901" /><path
         id="ellipse593"
         style="fill:#70e73b;fill-opacity:1;stroke-width:1.1162"
         d="m 45.509835,17.429786 c -0.378704,1.48691 -11.918724,8.316677 -14.932905,8.267213 -2.509301,-0.04118 -12.755356,-4.886781 -14.980245,-8.219875 6.462011,4.57599 19.674702,6.930068 29.91315,-0.04734 z"
         sodipodi:nodetypes="csccc" /><path
         style="opacity:1;fill:#70e73b;fill-opacity:1;stroke-width:1.1345"
         d="m 27.068474,24.652308 c 0,0 -0.259891,1.444629 -0.07247,1.850703 0.187419,0.406074 0.659842,0.9712 1.035299,1.34991 0.193178,0.311061 0.17713,0.986029 -0.08459,1.411305 -0.25854,0.420103 -0.572718,0.866519 -0.75003,1.247281 -0.690958,1.389951 -0.112575,3.199021 0.349335,4.940863 0.303073,0.969491 2.189764,6.812332 3.029936,12.031541 0.491419,-4.326872 2.267497,-9.514227 2.921601,-11.865204 0.700921,-2.519245 1.042623,-3.188293 0.478678,-4.95001 -0.134969,-0.346477 -0.47341,-0.855338 -0.777416,-1.294211 -0.352412,-0.508751 -0.337659,-1.32632 -0.0962,-1.555214 0.590976,-0.560222 1.013052,-1.267045 1.029794,-1.617388 0.01193,-0.249607 0.06034,-0.982592 -0.189666,-1.506093 -1.103849,-0.272371 -6.874268,-0.04348 -6.874268,-0.04348 z"
         id="path622"
         sodipodi:nodetypes="cscscccscssscc" /></g></g></g><text
   xml:space="preserve"
   style="font-style:normal;font-variant:normal;font-weight:normal;font-stretch:normal;font-size:21.3333px;font-family:Rockwell;-inkscape-font-specification:Rockwell;opacity:0.671924;fill:#000000;stroke-width:6.88252"
   x="21.91581"
   y="13.328272"
   id="text367"><tspan
     sodipodi:role="line"
     id="tspan365"
     x="21.91581"
     y="13.328272" /></text></svg>
